<svg xmlns="http://www.w3.org/2000/svg" width="900" height="420" viewBox="0 0 900 420">
<rect width="100%" height="100%" fill="white"/>
<text x="450.0" y="24" text-anchor="middle" font-family="Arial" font-size="18">RoboCasa Autoresearch Progress</text>
<line x1="70" y1="35" x2="70" y2="360" stroke="#333"/>
<line x1="70" y1="360" x2="870" y2="360" stroke="#333"/>
<text x="450.0" y="402" text-anchor="middle" font-family="Arial" font-size="13">Experiment #</text>
<text x="18" y="197.5" transform="rotate(-90 18 197.5)" text-anchor="middle" font-family="Arial" font-size="13">Eval success rate</text>
<line x1="66" y1="360.0" x2="870" y2="360.0" stroke="#eee"/>
<text x="62" y="364.0" text-anchor="end" font-family="Arial" font-size="11">0.00</text>
<line x1="66" y1="295.0" x2="870" y2="295.0" stroke="#eee"/>
<text x="62" y="299.0" text-anchor="end" font-family="Arial" font-size="11">0.20</text>
<line x1="66" y1="230.0" x2="870" y2="230.0" stroke="#eee"/>
<text x="62" y="234.0" text-anchor="end" font-family="Arial" font-size="11">0.40</text>
<line x1="66" y1="165.0" x2="870" y2="165.0" stroke="#eee"/>
<text x="62" y="169.0" text-anchor="end" font-family="Arial" font-size="11">0.60</text>
<line x1="66" y1="100.0" x2="870" y2="100.0" stroke="#eee"/>
<text x="62" y="104.0" text-anchor="end" font-family="Arial" font-size="11">0.80</text>
<line x1="66" y1="35.0" x2="870" y2="35.0" stroke="#eee"/>
<text x="62" y="39.0" text-anchor="end" font-family="Arial" font-size="11">1.00</text>
<polyline fill="none" stroke="#238b45" stroke-width="2" points="70.0,360.0 203.3,313.6 336.7,360.0 470.0,313.6 603.3,220.7 736.7,220.7 870.0,174.3"/>
<circle cx="70.0" cy="360.0" r="5" fill="#bbb" stroke="#333"/>
<text x="77.0" y="353.0" font-family="Arial" font-size="10" fill="#333">flow chunk 16 commit 4 chunk_decay 0</text>
<circle cx="203.3" cy="313.6" r="5" fill="#2ecc71" stroke="#333"/>
<text x="210.3" y="306.6" font-family="Arial" font-size="10" fill="#333">direct BC chunk 16 commit 4 chunk_de</text>
<circle cx="336.7" cy="360.0" r="5" fill="#bbb" stroke="#333"/>
<text x="343.7" y="353.0" font-family="Arial" font-size="10" fill="#333">direct BC chunk 8 commit 2 chunk_dec</text>
<circle cx="470.0" cy="313.6" r="5" fill="#bbb" stroke="#333"/>
<text x="477.0" y="306.6" font-family="Arial" font-size="10" fill="#333">eval accepted exp2 checkpoint with c</text>
<circle cx="603.3" cy="220.7" r="5" fill="#2ecc71" stroke="#333"/>
<text x="610.3" y="213.7" font-family="Arial" font-size="10" fill="#333">eval accepted exp2 checkpoint with c</text>
<circle cx="736.7" cy="220.7" r="5" fill="#bbb" stroke="#333"/>
<text x="743.7" y="213.7" font-family="Arial" font-size="10" fill="#333">eval accepted exp2 checkpoint with c</text>
<circle cx="870.0" cy="174.3" r="5" fill="#2ecc71" stroke="#333"/>
<text x="877.0" y="167.3" font-family="Arial" font-size="10" fill="#333">eval accepted exp2 checkpoint with c</text>
</svg>